<svg xmlns="http://www.w3.org/2000/svg" viewBox="0 0 29 29" fill="currentColor">
  <g transform="translate(2.5, 2.5)">
    <path fill-rule="evenodd" clip-rule="evenodd" d="M12 0C5.373 0 0 5.373 0 12c0 5.302 3.438 9.799 8.207 11.387.6.111.793-.261.793-.577 0-.285-.011-1.04-.017-2.04-3.338.724-4.042-1.61-4.042-1.61-.546-1.387-1.333-1.756-1.333-1.756-1.09-.745.083-.729.083-.729 1.205.085 1.84 1.237 1.84 1.237 1.07 1.834 2.807 1.304 3.492.997.108-.775.418-1.304.761-1.604-2.665-.304-5.467-1.333-5.467-5.933 0-1.311.469-2.382 1.236-3.221-.124-.304-.535-1.524.117-3.176 0 0 1.008-.323 3.3 1.23.957-.266 1.984-.399 3.003-.404 1.019.005 2.046.138 3.006.404 2.29-1.553 3.297-1.23 3.297-1.23.654 1.653.243 2.873.119 3.176.77.839 1.234 1.91 1.234 3.221 0 4.61-2.807 5.625-5.48 5.922.43.37.823 1.102.823 2.222 0 1.606-.015 2.901-.015 3.293 0 .319.192.694.8.576C20.565 21.796 24 17.3 24 12c0-6.627-5.373-12-12-12z"/>
  </g>
</svg>